<svg width="29" height="29" viewBox="0 0 29 29" fill="none" xmlns="http://www.w3.org/2000/svg">
<path d="M29 0H0V29H29V0Z" fill="#ED1C24"/>
<path d="M15.734 17.2029H17.7382C19.5818 17.2029 21.0775 15.7081 21.0775 13.8636V7.51948C21.0775 5.67591 19.5828 4.18018 17.7382 4.18018H15.7238C15.6767 4.18018 15.6389 4.21803 15.6389 4.26509V17.1067C15.6389 17.1599 15.6819 17.2018 15.734 17.2018V17.2029ZM18.215 10.026C18.9424 10.026 19.5317 10.6153 19.5317 11.3427C19.5317 12.0701 18.9424 12.6594 18.215 12.6594C17.4876 12.6594 16.8983 12.0701 16.8983 11.3427C16.8983 10.6153 17.4876 10.026 18.215 10.026ZM14.2404 4.18018H11.3942C9.55059 4.18018 8.05486 5.67488 8.05486 7.51948V13.8636C8.05486 15.7071 9.54957 17.2029 11.3942 17.2029H14.2404C14.2936 17.2029 14.3355 17.1599 14.3355 17.1077V4.27634C14.3355 4.22314 14.2925 4.1812 14.2404 4.1812V4.18018ZM13.2858 16.1522H11.3942C10.7824 16.1522 10.2074 15.9138 9.77567 15.4821C9.34291 15.0503 9.10556 14.4753 9.10556 13.8636V7.51948C9.10556 6.90769 9.34393 6.33272 9.77567 5.90098C10.2084 5.46822 10.7834 5.23087 11.3942 5.23087H13.2858V16.1532V16.1522ZM10.0826 8.08626C10.0826 8.76251 10.631 9.31088 11.3072 9.31088C11.9835 9.31088 12.5318 8.76251 12.5318 8.08626C12.5318 7.41001 11.9835 6.86165 11.3072 6.86165C10.631 6.86165 10.0826 7.41001 10.0826 8.08626ZM5.30177 19.7247L6.10898 20.8123H6.43022V19.1866H6.09977V20.2547L5.29973 19.1866H4.97132V20.8123H5.30075V19.7247H5.30177ZM13.2388 19.1866H11.8617V19.5314H12.3814V20.8123H12.7313V19.5314H13.2388V19.1866ZM13.1385 24.7122H13.8209V21.644H13.1385V24.7122ZM9.57412 19.7247L10.3813 20.8123H10.7026V19.1866H10.3721V20.2547L9.57208 19.1866H9.24367V20.8123H9.5731V19.7247H9.57412ZM11.1159 23.8702L10.4662 21.644H9.92197L9.27539 23.862L8.68507 21.644H8.01701L8.88559 24.7122H9.62323L10.1951 22.6906L10.7629 24.7122H11.5036L12.3763 21.644H11.7083L11.1159 23.8702ZM6.24505 22.8492C5.80205 22.7766 5.51559 22.6947 5.51559 22.488C5.51559 22.2497 5.83479 22.1576 6.26244 22.1576C6.66041 22.1576 7.05941 22.309 7.20162 22.3694L7.41953 21.8384C7.26505 21.777 6.775 21.6021 6.23175 21.6021C5.56879 21.6021 4.8639 21.9254 4.8639 22.5249C4.8639 23.0108 5.20663 23.2594 6.08647 23.4098C6.70645 23.5162 7.04816 23.5756 7.03793 23.8416C7.03281 23.9879 6.91925 24.2344 6.22049 24.2344C5.65882 24.2344 5.26187 24.0308 5.12478 23.948L4.83423 24.4718C4.98871 24.5536 5.50843 24.7971 6.1765 24.7971C7.15251 24.7971 7.66814 24.4585 7.66814 23.8191C7.66814 23.4487 7.54332 23.062 6.24607 22.8492H6.24505ZM8.01803 19.1866H7.65586V20.8123H8.01803V19.1866ZM18.4994 20.8123V19.1866H18.169V20.2547L17.3689 19.1866H17.0405V20.8123H17.3699V19.7247L18.1771 20.8123H18.4984H18.4994ZM15.6931 20.5115H14.758V20.1299H15.6225V19.8362H14.758V19.4853H15.6931V19.1866H14.4286V20.8123H15.6931V20.5115ZM24.3473 24.3429H24.4874V24.7122H24.5765V24.3429H24.7135V24.2559H24.3473V24.3429ZM23.3007 19.1313C22.8229 19.1313 22.4341 19.5211 22.4341 19.9989C22.4341 20.4767 22.8229 20.8665 23.3007 20.8665C23.7785 20.8665 24.1672 20.4777 24.1672 19.9989C24.1672 19.5201 23.7785 19.1313 23.3007 19.1313ZM23.3007 20.5053C23.0224 20.5053 22.7953 20.2782 22.7953 19.9989C22.7953 19.7196 23.0214 19.4925 23.3007 19.4925C23.58 19.4925 23.8061 19.7196 23.8061 19.9989C23.8061 20.2782 23.58 20.5053 23.3007 20.5053ZM25.178 24.2559L25.0634 24.5894L24.9489 24.2559H24.822V24.7122H24.9038V24.3613L25.0235 24.7081V24.7122H25.1033V24.7081L25.2241 24.3613V24.7122H25.3059V24.2559H25.179H25.178ZM23.4112 22.8533H21.9779V21.644H21.3435V24.7122H21.9779V23.4886H23.4112V24.7122H24.0465V21.644H23.4112V22.8533ZM14.5688 22.2947H15.5489V24.7122H16.2087V22.2947H17.1674V21.644H14.5688V22.2947ZM19.3005 22.2251C19.6473 22.2251 19.9696 22.4103 20.1425 22.7019L20.6417 22.2681C20.3358 21.8138 19.8314 21.5438 19.2821 21.5438C18.3787 21.5438 17.6441 22.2783 17.6441 23.1817C17.6441 24.0851 18.3787 24.8196 19.2821 24.8196C19.8314 24.8196 20.3358 24.5495 20.6417 24.0953L20.1425 23.6615C19.9696 23.9531 19.6463 24.1383 19.3005 24.1383C18.7634 24.1383 18.3275 23.7096 18.3275 23.1827C18.3275 22.6558 18.7644 22.2272 19.3005 22.2272V22.2251ZM20.5466 19.1856H19.8744V20.8112H20.5466C21.008 20.8112 21.3824 20.447 21.3824 19.9979C21.3824 19.5488 21.007 19.1845 20.5466 19.1845V19.1856ZM20.5629 20.4695H20.2079V19.5273H20.5629C20.8228 19.5273 21.0346 19.7391 21.0346 19.9989C21.0346 20.2588 20.8228 20.4705 20.5629 20.4705V20.4695Z" fill="white"/>
</svg>
