<svg width="27" height="21" viewBox="0 0 27 21" fill="none" xmlns="http://www.w3.org/2000/svg">
<path fill-rule="evenodd" clip-rule="evenodd" d="M25.9567 15.7386C25.4478 16.369 24.201 16.8187 24.201 16.8187L14.9258 20.0896V17.6774L21.7517 15.2896C22.5263 15.0171 22.6452 14.6319 22.0156 14.4297C21.3872 14.2269 20.2492 14.285 19.474 14.5587L14.9258 16.1314V13.628L15.188 13.5408C15.188 13.5408 16.5022 13.0842 18.3503 12.8831C20.1983 12.6833 22.4612 12.9104 24.2376 13.5716C26.2395 14.1927 26.465 15.1083 25.9567 15.7386ZM15.8087 11.6311V5.46231C15.8087 4.73783 15.6726 4.07086 14.9802 3.88205C14.45 3.71531 14.121 4.19868 14.121 4.92258V20.3708L9.87756 19.0485V0.62915C11.6818 0.957984 14.3104 1.73533 15.7235 2.20302C19.3172 3.41436 20.5356 4.922 20.5356 8.31898C20.5356 11.63 18.4538 12.8849 15.8087 11.6311ZM2.09127 17.4252C0.0361097 16.857 -0.305924 15.673 0.630822 14.9909C1.49656 14.3611 2.96884 13.8871 2.96884 13.8871L9.05325 11.763V14.1845L4.67486 15.723C3.90144 15.9954 3.7825 16.3812 4.41094 16.5834C5.03998 16.7856 6.17851 16.7281 6.95311 16.455L9.05325 15.7067V17.8732C8.9201 17.8964 8.77157 17.9196 8.63429 17.9423C6.53356 18.2793 4.29614 18.1387 2.09127 17.4252ZM24.6051 18.3844C24.8708 18.3844 25.1199 18.4855 25.3075 18.672C25.4951 18.8556 25.5987 19.1008 25.5987 19.361C25.5987 19.6225 25.4951 19.8665 25.3075 20.0501C25.1199 20.2354 24.8708 20.3365 24.6051 20.3365C24.3394 20.3365 24.0909 20.2354 23.9027 20.0501C23.7151 19.8665 23.6122 19.6225 23.6122 19.361C23.6122 18.8231 24.0572 18.3844 24.6051 18.3844ZM23.779 19.361C23.779 19.5777 23.8648 19.7817 24.0211 19.9339C24.1767 20.0884 24.385 20.1721 24.6051 20.1721C25.0614 20.1721 25.4312 19.8084 25.4312 19.361C25.4312 19.1438 25.346 18.9398 25.1892 18.787C25.0335 18.6325 24.8253 18.5494 24.6051 18.5494C24.385 18.5494 24.1767 18.6325 24.0211 18.787C23.8648 18.9398 23.779 19.1438 23.779 19.361ZM24.9051 18.8353C25.014 18.8823 25.0691 18.9729 25.0691 19.1019C25.0691 19.1682 25.0548 19.2239 25.0259 19.2675C25.0051 19.2989 24.9756 19.3244 24.9424 19.3465C24.9685 19.3616 24.9915 19.3796 25.0087 19.4006C25.0324 19.4308 25.046 19.479 25.0478 19.5446L25.0531 19.6835C25.0549 19.7207 25.0572 19.7491 25.0631 19.7666C25.0691 19.7921 25.0803 19.8084 25.0945 19.8136L25.1093 19.8206V19.8363V19.8601V19.8839H25.085H24.9093H24.8951L24.888 19.8717C24.8821 19.8601 24.8779 19.8468 24.8738 19.8293C24.8708 19.8136 24.8679 19.7863 24.8661 19.7445L24.8572 19.5719C24.8548 19.5121 24.8341 19.4749 24.7951 19.4552C24.7708 19.4441 24.7306 19.4389 24.6761 19.4389H24.3749V19.8601V19.8839H24.3501H24.2069H24.1826V19.8601V18.8219V18.7981H24.2069H24.6962C24.7803 18.7981 24.8507 18.8103 24.9051 18.8353L24.9051 18.8353ZM24.3749 19.2727H24.6815C24.743 19.2727 24.7921 19.2617 24.827 19.239C24.859 19.2164 24.8744 19.1751 24.8744 19.1153C24.8744 19.0502 24.8525 19.0078 24.8063 18.9852C24.7809 18.973 24.7454 18.966 24.7004 18.966H24.3749V19.2727Z" fill="url(#paint0_linear_353_19630)"/>
<defs>
<linearGradient id="paint0_linear_353_19630" x1="0.135742" y1="11.9607" x2="26.1884" y2="11.9607" gradientUnits="userSpaceOnUse">
<stop stop-color="#0D2BA2"/>
<stop offset="1" stop-color="#0C7CED"/>
</linearGradient>
</defs>
</svg>
