<svg width="21" height="21" viewBox="0 0 21 21" fill="none" xmlns="http://www.w3.org/2000/svg">
<path d="M9.45292 20.9568C7.83531 20.802 6.19758 20.2214 4.79071 19.304C3.6118 18.5352 3.34557 18.2192 3.34557 17.5885C3.34557 16.3217 4.73922 14.1029 7.12366 11.5735C8.47787 10.137 10.3642 8.45316 10.5682 8.49875C10.9647 8.58738 14.1352 11.6783 15.3221 13.1334C17.199 15.4343 18.0619 17.3182 17.6235 18.1581C17.2903 18.7966 15.2227 20.0445 13.7036 20.5239C12.4516 20.919 10.8074 21.0865 9.45292 20.9568ZM1.75331 16.2714C0.773654 14.7693 0.278701 13.2905 0.0397349 11.1517C-0.0391724 10.4454 -0.0108961 10.0415 0.218913 8.59187C0.505337 6.78515 1.5348 4.69501 2.77179 3.40869C3.29863 2.86084 3.34569 2.8475 3.98787 3.06371C4.76773 3.32629 5.60056 3.90115 6.89216 5.06842L7.64576 5.74947L7.23424 6.25474C5.32398 8.60023 3.30742 11.9249 2.54744 13.9818C2.13429 15.1 1.96765 16.2224 2.14541 16.6897C2.26543 17.0052 2.15519 16.8876 1.75331 16.2714ZM18.9493 16.5269C19.046 16.0547 18.9236 15.1875 18.6367 14.3129C18.0155 12.4187 15.9388 8.89485 14.0319 6.49899L13.4316 5.74478L14.081 5.14877C14.929 4.37056 15.5178 3.90458 16.153 3.50886C16.6543 3.19659 17.3707 2.92016 17.6786 2.92016C17.8684 2.92016 18.5368 3.61337 19.0763 4.3699C19.9119 5.54159 20.5267 6.96194 20.8381 8.44055C21.0394 9.39592 21.0562 11.4409 20.8706 12.3939C20.7183 13.176 20.3967 14.1906 20.0829 14.8786C19.8479 15.3942 19.2632 16.3954 19.007 16.7212C18.8753 16.8887 18.8752 16.8884 18.9493 16.5269H18.9493ZM9.62611 2.56247C8.74626 2.11591 7.38891 1.63656 6.63911 1.50759C6.37626 1.46238 5.92785 1.43717 5.64267 1.45156C5.02403 1.48278 5.05166 1.45045 6.04408 0.981835C6.86917 0.592237 7.5574 0.363136 8.49169 0.167069C9.54269 -0.053491 11.5182 -0.0560794 12.5525 0.161749C13.6696 0.397021 14.985 0.886267 15.7262 1.34216L15.9465 1.47766L15.4411 1.45215C14.4367 1.40146 12.9729 1.80702 11.4013 2.57141C10.9273 2.80197 10.5149 2.98612 10.4849 2.98062C10.4548 2.97512 10.0684 2.78696 9.62611 2.56247V2.56247Z" fill="url(#paint0_linear_31_2775)"/>
<defs>
<linearGradient id="paint0_linear_31_2775" x1="0.257001" y1="10.5" x2="20.7433" y2="10.5" gradientUnits="userSpaceOnUse">
<stop stop-color="#176D68"/>
<stop offset="1" stop-color="#D3FF58"/>
</linearGradient>
</defs>
</svg>
